<svg width="16" height="4" viewBox="0 0 16 4" fill="none" xmlns="http://www.w3.org/2000/svg">
<path d="M0.5 2.00033C0.5 2.91699 1.25 3.66699 2.16667 3.66699C3.08333 3.66699 3.83333 2.91699 3.83333 2.00033C3.83333 1.08366 3.08333 0.333659 2.16667 0.333659C1.25 0.333659 0.5 1.08366 0.5 2.00033ZM12.1667 2.00032C12.1667 2.91699 12.9167 3.66699 13.8333 3.66699C14.75 3.66699 15.5 2.91699 15.5 2.00032C15.5 1.08366 14.75 0.333658 13.8333 0.333658C12.9167 0.333658 12.1667 1.08366 12.1667 2.00032ZM6.33333 2.00033C6.33333 2.91699 7.08333 3.66699 8 3.66699C8.91667 3.66699 9.66667 2.91699 9.66667 2.00033C9.66667 1.08366 8.91667 0.333658 8 0.333658C7.08333 0.333658 6.33333 1.08366 6.33333 2.00033Z" fill="#515869"/>
</svg>
