<svg width="4" height="18" viewBox="0 0 4 18" fill="none" xmlns="http://www.w3.org/2000/svg">
<path d="M1.99996 0.75C0.991626 0.75 0.166626 1.575 0.166626 2.58333C0.166626 3.59167 0.991626 4.41667 1.99996 4.41667C3.00829 4.41667 3.83329 3.59167 3.83329 2.58333C3.83329 1.575 3.00829 0.75 1.99996 0.75ZM1.99996 13.5833C0.991626 13.5833 0.166626 14.4083 0.166626 15.4167C0.166626 16.425 0.991626 17.25 1.99996 17.25C3.00829 17.25 3.83329 16.425 3.83329 15.4167C3.83329 14.4083 3.00829 13.5833 1.99996 13.5833ZM1.99996 7.16667C0.991626 7.16667 0.166626 7.99167 0.166626 9C0.166626 10.0083 0.991626 10.8333 1.99996 10.8333C3.00829 10.8333 3.83329 10.0083 3.83329 9C3.83329 7.99167 3.00829 7.16667 1.99996 7.16667Z" fill="#515869"/>
</svg>
