<svg width="20" height="20" viewBox="0 0 20 20" fill="none" xmlns="http://www.w3.org/2000/svg">
<g clip-path="url(#clip0_228_873)">
<path d="M3.33345 13.3333H16.6668V4.16667H3.33345V13.3333ZM10.8334 15V16.6667H14.1668V18.3333H5.83345V16.6667H9.16678V15H2.49345C2.38402 14.9993 2.2758 14.9771 2.17498 14.9345C2.07416 14.892 1.98274 14.83 1.90594 14.752C1.82915 14.674 1.76849 14.5817 1.72745 14.4802C1.68641 14.3788 1.66579 14.2703 1.66678 14.1608V3.33917C1.66678 2.87583 2.04595 2.5 2.49345 2.5H17.5068C17.9634 2.5 18.3334 2.87417 18.3334 3.33917V14.1608C18.3334 14.6242 17.9543 15 17.5068 15H10.8334Z" fill="#515869"/>
</g>
<defs>
<clipPath id="clip0_228_873">
<rect width="20" height="20" fill="white"/>
</clipPath>
</defs>
</svg>
