<svg width="10" height="17" viewBox="0 0 10 17" fill="none" xmlns="http://www.w3.org/2000/svg">
<path d="M1.83333 0C0.825 0 0 0.825 0 1.83333C0 2.84167 0.825 3.66667 1.83333 3.66667C2.84167 3.66667 3.66667 2.84167 3.66667 1.83333C3.66667 0.825 2.84167 0 1.83333 0ZM1.83333 12.8333C0.825 12.8333 0 13.6583 0 14.6667C0 15.675 0.825 16.5 1.83333 16.5C2.84167 16.5 3.66667 15.675 3.66667 14.6667C3.66667 13.6583 2.84167 12.8333 1.83333 12.8333ZM1.83333 6.41667C0.825 6.41667 0 7.24167 0 8.25C0 9.25833 0.825 10.0833 1.83333 10.0833C2.84167 10.0833 3.66667 9.25833 3.66667 8.25C3.66667 7.24167 2.84167 6.41667 1.83333 6.41667Z" fill="#515869"/>
<path d="M7.83333 0C6.825 0 6 0.825 6 1.83333C6 2.84167 6.825 3.66667 7.83333 3.66667C8.84167 3.66667 9.66667 2.84167 9.66667 1.83333C9.66667 0.825 8.84167 0 7.83333 0ZM7.83333 12.8333C6.825 12.8333 6 13.6583 6 14.6667C6 15.675 6.825 16.5 7.83333 16.5C8.84167 16.5 9.66667 15.675 9.66667 14.6667C9.66667 13.6583 8.84167 12.8333 7.83333 12.8333ZM7.83333 6.41667C6.825 6.41667 6 7.24167 6 8.25C6 9.25833 6.825 10.0833 7.83333 10.0833C8.84167 10.0833 9.66667 9.25833 9.66667 8.25C9.66667 7.24167 8.84167 6.41667 7.83333 6.41667Z" fill="#515869"/>
</svg>
