<svg width="21" height="21" viewBox="0 0 21 21" fill="none" xmlns="http://www.w3.org/2000/svg">
<g clip-path="url(#clip0_233_2903)">
<path d="M12.9741 6.78752L8.02514 11.7374C7.94157 11.8181 7.87491 11.9147 7.82905 12.0214C7.78319 12.1282 7.75906 12.243 7.75805 12.3592C7.75704 12.4754 7.77918 12.5906 7.82317 12.6981C7.86717 12.8056 7.93214 12.9033 8.0143 12.9855C8.09645 13.0676 8.19415 13.1326 8.30168 13.1766C8.40921 13.2206 8.52444 13.2427 8.64062 13.2417C8.7568 13.2407 8.87162 13.2166 8.97837 13.1707C9.08512 13.1249 9.18168 13.0582 9.26239 12.9746L14.2123 8.02565C14.7046 7.53332 14.9812 6.86559 14.9812 6.16933C14.9812 5.47308 14.7046 4.80535 14.2123 4.31302C13.7199 3.8207 13.0522 3.54411 12.356 3.54411C11.6597 3.54411 10.992 3.8207 10.4996 4.31302L5.54977 9.2629C5.13508 9.66726 4.80482 10.1499 4.57813 10.6829C4.35144 11.2159 4.23284 11.7886 4.22921 12.3678C4.22558 12.947 4.337 13.5211 4.55699 14.0569C4.77698 14.5927 5.10117 15.0795 5.51075 15.489C5.92034 15.8986 6.40716 16.2227 6.94299 16.4426C7.47881 16.6625 8.05297 16.7738 8.63216 16.7701C9.21135 16.7664 9.78403 16.6477 10.317 16.421C10.85 16.1942 11.3326 15.8639 11.7369 15.4491L16.6868 10.5001L17.924 11.7374L12.9741 16.6873C12.4054 17.2561 11.7301 17.7072 10.9869 18.0151C10.2438 18.3229 9.44728 18.4813 8.64289 18.4813C7.8385 18.4813 7.04199 18.3229 6.29883 18.0151C5.55568 17.7072 4.88043 17.2561 4.31164 16.6873C3.74285 16.1185 3.29167 15.4432 2.98384 14.7001C2.67601 13.9569 2.51758 13.1604 2.51758 12.356C2.51758 11.5516 2.67601 10.7551 2.98384 10.012C3.29167 9.26881 3.74285 8.59356 4.31164 8.02477L9.26239 3.07577C10.0875 2.27883 11.1927 1.83785 12.3398 1.84782C13.4869 1.85779 14.5842 2.3179 15.3953 3.12906C16.2065 3.94023 16.6666 5.03753 16.6766 6.18464C16.6866 7.33175 16.2456 8.43689 15.4486 9.26202L10.4996 14.2136C10.2558 14.4574 9.96635 14.6508 9.64779 14.7827C9.32923 14.9146 8.98781 14.9825 8.64302 14.9824C8.29823 14.9824 7.95682 14.9144 7.6383 14.7825C7.31977 14.6505 7.03035 14.457 6.78658 14.2132C6.5428 13.9694 6.34944 13.6799 6.21753 13.3614C6.08563 13.0428 6.01776 12.7014 6.0178 12.3566C6.01784 12.0118 6.08579 11.6704 6.21777 11.3519C6.34975 11.0333 6.54318 10.7439 6.78702 10.5001L11.7369 5.55027L12.9741 6.78752Z" fill="#1A0A26"/>
</g>
<defs>
<clipPath id="clip0_233_2903">
<rect width="21" height="21" fill="white"/>
</clipPath>
</defs>
</svg>
