<svg width="20" height="20" viewBox="0 0 20 20" fill="none" xmlns="http://www.w3.org/2000/svg">
<g clip-path="url(#clip0_1_128)">
<path d="M1.66669 9.16634H18.3334V16.6663C18.3334 16.8874 18.2456 17.0993 18.0893 17.2556C17.933 17.4119 17.721 17.4997 17.5 17.4997H2.50002C2.27901 17.4997 2.06704 17.4119 1.91076 17.2556C1.75448 17.0993 1.66669 16.8874 1.66669 16.6663V9.16634ZM14.1667 2.49967H17.5C17.721 2.49967 17.933 2.58747 18.0893 2.74375C18.2456 2.90003 18.3334 3.11199 18.3334 3.33301V7.49967H1.66669V3.33301C1.66669 3.11199 1.75448 2.90003 1.91076 2.74375C2.06704 2.58747 2.27901 2.49967 2.50002 2.49967H5.83335V0.833008H7.50002V2.49967H12.5V0.833008H14.1667V2.49967Z" fill="#EEF0F5"/>
</g>
<defs>
<clipPath id="clip0_1_128">
<rect width="20" height="20" fill="white"/>
</clipPath>
</defs>
</svg>
