<svg width="16" height="16" viewBox="0 0 16 16" fill="none" xmlns="http://www.w3.org/2000/svg">
<g clip-path="url(#clip0_27_2546)">
<path d="M11.3334 1.99984H14C14.1769 1.99984 14.3464 2.07008 14.4714 2.1951C14.5965 2.32012 14.6667 2.48969 14.6667 2.6665V13.3332C14.6667 13.51 14.5965 13.6796 14.4714 13.8046C14.3464 13.9296 14.1769 13.9998 14 13.9998H2.00004C1.82323 13.9998 1.65366 13.9296 1.52864 13.8046C1.40361 13.6796 1.33337 13.51 1.33337 13.3332V2.6665C1.33337 2.48969 1.40361 2.32012 1.52864 2.1951C1.65366 2.07008 1.82323 1.99984 2.00004 1.99984H4.66671V0.666504H6.00004V1.99984H10V0.666504H11.3334V1.99984ZM2.66671 5.99984V12.6665H13.3334V5.99984H2.66671ZM4.00004 7.33317H5.33337V8.6665H4.00004V7.33317ZM4.00004 9.99984H5.33337V11.3332H4.00004V9.99984ZM6.66671 7.33317H12V8.6665H6.66671V7.33317ZM6.66671 9.99984H10V11.3332H6.66671V9.99984Z" fill="#515869"/>
</g>
<defs>
<clipPath id="clip0_27_2546">
<rect width="16" height="16" fill="white"/>
</clipPath>
</defs>
</svg>
