<svg width="20" height="20" viewBox="0 0 20 20" fill="none" xmlns="http://www.w3.org/2000/svg">
<g clip-path="url(#clip0_1_137)">
<path d="M5.83333 1.66699V18.3337H2.5V1.66699H5.83333ZM7.5 1.66699H15.8375C16.7558 1.66699 17.5 2.41533 17.5 3.32533V16.6753C17.5 17.5912 16.7558 18.3337 15.8375 18.3337H7.5V1.66699ZM18.3333 5.00033H20V8.33366H18.3333V5.00033ZM18.3333 10.0003H20V13.3337H18.3333V10.0003ZM12.5 10.0003C12.942 10.0003 13.3659 9.82473 13.6785 9.51217C13.9911 9.19961 14.1667 8.77569 14.1667 8.33366C14.1667 7.89163 13.9911 7.46771 13.6785 7.15515C13.3659 6.84259 12.942 6.66699 12.5 6.66699C12.058 6.66699 11.634 6.84259 11.3215 7.15515C11.0089 7.46771 10.8333 7.89163 10.8333 8.33366C10.8333 8.77569 11.0089 9.19961 11.3215 9.51217C11.634 9.82473 12.058 10.0003 12.5 10.0003ZM10 13.3337H15C15 12.6706 14.7366 12.0347 14.2678 11.5659C13.7989 11.0971 13.163 10.8337 12.5 10.8337C11.837 10.8337 11.2011 11.0971 10.7322 11.5659C10.2634 12.0347 10 12.6706 10 13.3337Z" fill="white"/>
</g>
<defs>
<clipPath id="clip0_1_137">
<rect width="20" height="20" fill="white"/>
</clipPath>
</defs>
</svg>
