<svg width="40" height="40" viewBox="0 0 40 40" fill="none" xmlns="http://www.w3.org/2000/svg">
<circle cx="20" cy="20" r="19.5" fill="white" stroke="#1A0A26"/>
<g clip-path="url(#clip0_52_5726)">
<path d="M22.917 14.7502H25.2503C25.405 14.7502 25.5534 14.8116 25.6628 14.921C25.7722 15.0304 25.8337 15.1788 25.8337 15.3335V24.6668C25.8337 24.8215 25.7722 24.9699 25.6628 25.0793C25.5534 25.1887 25.405 25.2502 25.2503 25.2502H14.7503C14.5956 25.2502 14.4472 25.1887 14.3378 25.0793C14.2285 24.9699 14.167 24.8215 14.167 24.6668V15.3335C14.167 15.1788 14.2285 15.0304 14.3378 14.921C14.4472 14.8116 14.5956 14.7502 14.7503 14.7502H17.0837V13.5835H18.2503V14.7502H21.7503V13.5835H22.917V14.7502ZM15.3337 18.2502V24.0835H24.667V18.2502H15.3337ZM16.5003 19.4168H17.667V20.5835H16.5003V19.4168ZM16.5003 21.7502H17.667V22.9168H16.5003V21.7502ZM18.8337 19.4168H23.5003V20.5835H18.8337V19.4168ZM18.8337 21.7502H21.7503V22.9168H18.8337V21.7502Z" fill="#1A0A26"/>
</g>
<defs>
<clipPath id="clip0_52_5726">
<rect width="14" height="14" fill="white" transform="translate(13 13)"/>
</clipPath>
</defs>
</svg>
