<svg width="15" height="15" viewBox="0 0 15 15" fill="none" xmlns="http://www.w3.org/2000/svg">
<g clip-path="url(#clip0_37_4117)">
<path d="M12.5 4.375V13.125C12.5 13.2908 12.4342 13.4497 12.3169 13.5669C12.1997 13.6842 12.0408 13.75 11.875 13.75H3.125C2.95924 13.75 2.80027 13.6842 2.68306 13.5669C2.56585 13.4497 2.5 13.2908 2.5 13.125V4.375H1.25V3.125H13.75V4.375H12.5ZM6.875 5.625V6.875H8.125V5.625H6.875ZM6.875 7.5V8.75H8.125V7.5H6.875ZM6.875 9.375V10.625H8.125V9.375H6.875ZM4.375 1.25H10.625V2.5H4.375V1.25Z" fill="#515869"/>
</g>
<defs>
<clipPath id="clip0_37_4117">
<rect width="15" height="15" fill="white"/>
</clipPath>
</defs>
</svg>
