<svg width="16" height="16" viewBox="0 0 16 16" fill="none" xmlns="http://www.w3.org/2000/svg">
<g clip-path="url(#clip0_20_1607)">
<path d="M13.3335 4.66634V13.9997C13.3335 14.1765 13.2633 14.3461 13.1382 14.4711C13.0132 14.5961 12.8436 14.6663 12.6668 14.6663H3.3335C3.15668 14.6663 2.98712 14.5961 2.86209 14.4711C2.73707 14.3461 2.66683 14.1765 2.66683 13.9997V4.66634H1.3335V3.33301H14.6668V4.66634H13.3335ZM7.3335 5.99967V7.33301H8.66683V5.99967H7.3335ZM7.3335 7.99967V9.33301H8.66683V7.99967H7.3335ZM7.3335 9.99967V11.333H8.66683V9.99967H7.3335ZM4.66683 1.33301H11.3335V2.66634H4.66683V1.33301Z" fill="#1A0A26"/>
</g>
<defs>
<clipPath id="clip0_20_1607">
<rect width="16" height="16" fill="white"/>
</clipPath>
</defs>
</svg>
