<svg width="24" height="24" viewBox="0 0 24 24" fill="none" xmlns="http://www.w3.org/2000/svg">
<circle cx="12" cy="12" r="12" fill="#F8AE37"/>
<path d="M7.5 7.5H16.5C16.6326 7.5 16.7598 7.55268 16.8536 7.64645C16.9473 7.74021 17 7.86739 17 8V16C17 16.1326 16.9473 16.2598 16.8536 16.3536C16.7598 16.4473 16.6326 16.5 16.5 16.5H7.5C7.36739 16.5 7.24021 16.4473 7.14645 16.3536C7.05268 16.2598 7 16.1326 7 16V8C7 7.86739 7.05268 7.74021 7.14645 7.64645C7.24021 7.55268 7.36739 7.5 7.5 7.5ZM12.03 11.8415L8.824 9.119L8.1765 9.881L12.0365 13.1585L15.827 9.8785L15.173 9.122L12.0305 11.8415H12.03Z" fill="white"/>
</svg>
