<svg width="20" height="20" viewBox="0 0 20 20" fill="none" xmlns="http://www.w3.org/2000/svg">
<circle cx="10" cy="10" r="10" fill="#F8AE37"/>
<g clip-path="url(#clip0_454_3)">
<path d="M6.2487 6.25H13.7487C13.8592 6.25 13.9652 6.2939 14.0433 6.37204C14.1215 6.45018 14.1654 6.55616 14.1654 6.66667V13.3333C14.1654 13.4438 14.1215 13.5498 14.0433 13.628C13.9652 13.7061 13.8592 13.75 13.7487 13.75H6.2487C6.13819 13.75 6.03221 13.7061 5.95407 13.628C5.87593 13.5498 5.83203 13.4438 5.83203 13.3333V6.66667C5.83203 6.55616 5.87593 6.45018 5.95407 6.37204C6.03221 6.2939 6.13819 6.25 6.2487 6.25V6.25ZM10.0237 9.86792L7.35203 7.59917L6.81245 8.23417L10.0291 10.9654L13.1879 8.23208L12.6429 7.60167L10.0241 9.86792H10.0237Z" fill="white"/>
</g>
<defs>
<clipPath id="clip0_454_3">
<rect width="10" height="10" fill="white" transform="translate(5 5)"/>
</clipPath>
</defs>
</svg>
