<svg width="20" height="20" viewBox="0 0 20 20" fill="none" xmlns="http://www.w3.org/2000/svg">
<g clip-path="url(#clip0_46_4690)">
<path d="M15.8334 18.3332H4.16675C3.50371 18.3332 2.86782 18.0698 2.39898 17.6009C1.93014 17.1321 1.66675 16.4962 1.66675 15.8332V2.49984C1.66675 2.27882 1.75455 2.06686 1.91083 1.91058C2.06711 1.7543 2.27907 1.6665 2.50008 1.6665H14.1667C14.3878 1.6665 14.5997 1.7543 14.756 1.91058C14.9123 2.06686 15.0001 2.27882 15.0001 2.49984V12.4998H18.3334V15.8332C18.3334 16.4962 18.07 17.1321 17.6012 17.6009C17.1323 18.0698 16.4965 18.3332 15.8334 18.3332ZM15.0001 14.1665V15.8332C15.0001 16.0542 15.0879 16.2661 15.2442 16.4224C15.4004 16.5787 15.6124 16.6665 15.8334 16.6665C16.0544 16.6665 16.2664 16.5787 16.4227 16.4224C16.579 16.2661 16.6667 16.0542 16.6667 15.8332V14.1665H15.0001ZM5.00008 5.83317V7.49984H11.6667V5.83317H5.00008ZM5.00008 9.1665V10.8332H11.6667V9.1665H5.00008ZM5.00008 12.4998V14.1665H9.16675V12.4998H5.00008Z" fill="#515869"/>
</g>
<defs>
<clipPath id="clip0_46_4690">
<rect width="20" height="20" fill="white"/>
</clipPath>
</defs>
</svg>
