<svg width="20" height="20" viewBox="0 0 20 20" fill="none" xmlns="http://www.w3.org/2000/svg">
<g clip-path="url(#clip0_34_3920)">
<path d="M17.5 12.7028V17.507C17.4998 17.7263 17.4125 17.9366 17.2574 18.0916C17.1022 18.2466 16.8918 18.3337 16.6725 18.3337H3.32752C3.21808 18.3329 3.10987 18.3106 3.00906 18.268C2.90825 18.2254 2.81681 18.1634 2.73997 18.0855C2.66313 18.0075 2.60239 17.9152 2.56122 17.8138C2.52005 17.7124 2.49925 17.6039 2.50002 17.4945V7.50033H7.50002C7.72103 7.50033 7.933 7.41253 8.08928 7.25625C8.24556 7.09997 8.33335 6.88801 8.33335 6.66699V1.66699H16.6684C17.1275 1.66699 17.5 2.04616 17.5 2.49366V5.63116L10.0009 13.1312L9.99585 16.6628L13.5342 16.6678L17.5 12.7028ZM18.1484 7.34032L19.3267 8.51866L12.845 15.0003L11.665 14.9987L11.6667 13.822L18.1484 7.34032ZM2.50002 5.83366L6.66669 1.66949V5.83366H2.50002Z" fill="#515869"/>
</g>
<defs>
<clipPath id="clip0_34_3920">
<rect width="20" height="20" fill="white"/>
</clipPath>
</defs>
</svg>
