<svg width="32" height="32" viewBox="0 0 32 32" fill="none" xmlns="http://www.w3.org/2000/svg">
<circle cx="16" cy="16" r="16" fill="#CB61A1"/>
<g clip-path="url(#clip0_136_2)">
<path d="M10.7498 10.75H21.2498C21.4045 10.75 21.5529 10.8115 21.6623 10.9209C21.7717 11.0303 21.8332 11.1786 21.8332 11.3333V20.6667C21.8332 20.8214 21.7717 20.9697 21.6623 21.0791C21.5529 21.1885 21.4045 21.25 21.2498 21.25H10.7498C10.5951 21.25 10.4468 21.1885 10.3374 21.0791C10.228 20.9697 10.1665 20.8214 10.1665 20.6667V11.3333C10.1665 11.1786 10.228 11.0303 10.3374 10.9209C10.4468 10.8115 10.5951 10.75 10.7498 10.75ZM16.0348 15.8151L12.2945 12.6388L11.5391 13.5278L16.0424 17.3516L20.4647 13.5249L19.7017 12.6423L16.0354 15.8151H16.0348Z" fill="white"/>
</g>
<defs>
<clipPath id="clip0_136_2">
<rect width="14" height="14" fill="white" transform="translate(9 9)"/>
</clipPath>
</defs>
</svg>
