<svg width="14" height="12" viewBox="0 0 14 12" fill="none" xmlns="http://www.w3.org/2000/svg">
<path d="M1.00004 0H13C13.1769 0 13.3464 0.0702379 13.4714 0.195262C13.5965 0.320286 13.6667 0.489856 13.6667 0.666667V11.3333C13.6667 11.5101 13.5965 11.6797 13.4714 11.8047C13.3464 11.9298 13.1769 12 13 12H1.00004C0.82323 12 0.65366 11.9298 0.528636 11.8047C0.403612 11.6797 0.333374 11.5101 0.333374 11.3333V0.666667C0.333374 0.489856 0.403612 0.320286 0.528636 0.195262C0.65366 0.0702379 0.82323 0 1.00004 0ZM4.66671 7.33333V8.66667H6.33337V10H7.66671V8.66667H8.33337C8.7754 8.66667 9.19932 8.49107 9.51188 8.17851C9.82445 7.86595 10 7.44203 10 7C10 6.55797 9.82445 6.13405 9.51188 5.82149C9.19932 5.50893 8.7754 5.33333 8.33337 5.33333H5.66671C5.5783 5.33333 5.49352 5.29821 5.431 5.2357C5.36849 5.17319 5.33337 5.08841 5.33337 5C5.33337 4.91159 5.36849 4.82681 5.431 4.7643C5.49352 4.70179 5.5783 4.66667 5.66671 4.66667H9.33337V3.33333H7.66671V2H6.33337V3.33333H5.66671C5.22468 3.33333 4.80076 3.50893 4.4882 3.82149C4.17564 4.13405 4.00004 4.55797 4.00004 5C4.00004 5.44203 4.17564 5.86595 4.4882 6.17851C4.80076 6.49107 5.22468 6.66667 5.66671 6.66667H8.33337C8.42178 6.66667 8.50656 6.70179 8.56908 6.7643C8.63159 6.82681 8.66671 6.91159 8.66671 7C8.66671 7.08841 8.63159 7.17319 8.56908 7.2357C8.50656 7.29821 8.42178 7.33333 8.33337 7.33333H4.66671Z" fill="#515869"/>
</svg>
