<svg width="16" height="16" viewBox="0 0 16 16" fill="none" xmlns="http://www.w3.org/2000/svg">
<g clip-path="url(#clip0_20_1603)">
<path d="M7.26673 1.40039L13.8661 2.34372L14.8087 8.94372L8.68073 15.0717C8.55571 15.1967 8.38617 15.2669 8.2094 15.2669C8.03262 15.2669 7.86308 15.1967 7.73806 15.0717L1.13806 8.47172C1.01308 8.34671 0.942871 8.17717 0.942871 8.00039C0.942871 7.82361 1.01308 7.65408 1.13806 7.52906L7.26673 1.40039ZM9.15206 7.05772C9.2759 7.18152 9.4229 7.27971 9.58469 7.34668C9.74647 7.41366 9.91986 7.44812 10.095 7.44809C10.2701 7.44806 10.4434 7.41354 10.6052 7.34651C10.767 7.27947 10.9139 7.18123 11.0377 7.05739C11.1615 6.93355 11.2597 6.78655 11.3267 6.62476C11.3937 6.46298 11.4281 6.28959 11.4281 6.11449C11.4281 5.93939 11.3935 5.76601 11.3265 5.60425C11.2595 5.44249 11.1612 5.29552 11.0374 5.17172C10.9136 5.04793 10.7666 4.94974 10.6048 4.88276C10.443 4.81578 10.2696 4.78133 10.0945 4.78136C9.74086 4.78142 9.40174 4.92196 9.15173 5.17206C8.90172 5.42216 8.7613 5.76133 8.76136 6.11496C8.76142 6.46859 8.90196 6.80771 9.15206 7.05772Z" fill="#1A0A26"/>
</g>
<defs>
<clipPath id="clip0_20_1603">
<rect width="16" height="16" fill="white"/>
</clipPath>
</defs>
</svg>
