<svg width="20" height="20" viewBox="0 0 20 20" fill="none" xmlns="http://www.w3.org/2000/svg">
<g clip-path="url(#clip0_1_147)">
<path d="M10 18.3337C5.39752 18.3337 1.66669 14.6028 1.66669 10.0003C1.66669 5.39783 5.39752 1.66699 10 1.66699C14.6025 1.66699 18.3334 5.39783 18.3334 10.0003C18.3334 14.6028 14.6025 18.3337 10 18.3337ZM9.16669 12.5003V14.167H10.8334V12.5003H9.16669ZM10.8334 11.1295C11.5031 10.9276 12.078 10.492 12.4535 9.90178C12.8289 9.3116 12.9799 8.6062 12.879 7.91405C12.778 7.22189 12.4318 6.58902 11.9034 6.13071C11.375 5.67239 10.6995 5.41911 10 5.41699C9.32573 5.41694 8.67224 5.65045 8.15068 6.07782C7.62912 6.50519 7.2717 7.10002 7.13919 7.76116L8.77419 8.08866C8.82059 7.85652 8.93195 7.64233 9.09533 7.47101C9.2587 7.29968 9.46736 7.17828 9.69704 7.12091C9.92672 7.06355 10.168 7.07258 10.3927 7.14697C10.6174 7.22135 10.8164 7.35802 10.9665 7.54108C11.1166 7.72415 11.2117 7.94607 11.2406 8.18103C11.2695 8.41599 11.2311 8.65433 11.1298 8.86831C11.0286 9.0823 10.8686 9.26313 10.6686 9.38977C10.4686 9.51641 10.2368 9.58364 10 9.58366C9.77901 9.58366 9.56705 9.67146 9.41076 9.82774C9.25448 9.98402 9.16669 10.196 9.16669 10.417V11.667H10.8334V11.1295Z" fill="white"/>
</g>
<defs>
<clipPath id="clip0_1_147">
<rect width="20" height="20" fill="white"/>
</clipPath>
</defs>
</svg>
