<svg width="13" height="13" viewBox="0 0 13 13" fill="none" xmlns="http://www.w3.org/2000/svg">
<path d="M9.5181 8.69358L12.0165 11.1914L11.1911 12.0168L8.69327 9.51841C7.76387 10.2635 6.60785 10.6687 5.41669 10.667C2.51869 10.667 0.166687 8.31499 0.166687 5.41699C0.166687 2.51899 2.51869 0.166992 5.41669 0.166992C8.31469 0.166992 10.6667 2.51899 10.6667 5.41699C10.6684 6.60816 10.2631 7.76417 9.5181 8.69358ZM8.34794 8.26074C9.08825 7.49943 9.50169 6.47891 9.50002 5.41699C9.50002 3.16066 7.67244 1.33366 5.41669 1.33366C3.16035 1.33366 1.33335 3.16066 1.33335 5.41699C1.33335 7.67274 3.16035 9.50033 5.41669 9.50033C6.4786 9.502 7.49912 9.08856 8.26044 8.34824L8.34794 8.26074Z" fill="#8F95A6"/>
</svg>
