<svg width="20" height="20" viewBox="0 0 20 20" fill="none" xmlns="http://www.w3.org/2000/svg">
<g clip-path="url(#clip0_1_131)">
<path d="M11.7675 8.73371C11.6112 8.57748 11.3993 8.48972 11.1783 8.48972C10.9574 8.48972 10.7454 8.57748 10.5892 8.73371L10 9.32204C9.84626 9.48123 9.66236 9.6082 9.45901 9.69555C9.25568 9.78289 9.03697 9.82887 8.81568 9.83079C8.59438 9.83272 8.37491 9.79055 8.17008 9.70675C7.96526 9.62294 7.77917 9.49919 7.62268 9.3427C7.46619 9.18621 7.34244 9.00013 7.25864 8.7953C7.17484 8.59047 7.13267 8.37101 7.13459 8.14971C7.13651 7.92841 7.18249 7.70971 7.26984 7.50637C7.35719 7.30303 7.48416 7.11912 7.64334 6.96538L12.335 2.27204C13.4458 2.0194 14.6079 2.12338 15.6562 2.56919C16.7045 3.015 17.5855 3.77996 18.1741 4.75529C18.7626 5.73061 19.0287 6.86667 18.9344 8.0019C18.8402 9.13714 18.3905 10.2138 17.6492 11.0787L15.8925 12.8579L11.7675 8.73288V8.73371ZM2.63417 3.72371C3.49647 2.86152 4.62436 2.31536 5.83547 2.17352C7.04659 2.03167 8.27015 2.30244 9.30834 2.94204L6.46417 5.78704C5.84817 6.40182 5.49703 7.23313 5.48579 8.10334C5.47454 8.97356 5.80408 9.81367 6.40399 10.4442C7.0039 11.0746 7.8266 11.4455 8.6963 11.4775C9.566 11.5095 10.4137 11.2001 11.0583 10.6154L11.1783 10.5012L14.7142 14.0362L11.1783 17.572C10.8658 17.8845 10.4419 18.06 10 18.06C9.55807 18.06 9.13422 17.8845 8.82167 17.572L2.63334 11.3837C1.61762 10.3679 1.047 8.99022 1.047 7.55371C1.047 6.1172 1.61762 4.73952 2.63334 3.72371H2.63417Z" fill="#EEF0F5"/>
</g>
<defs>
<clipPath id="clip0_1_131">
<rect width="20" height="20" fill="white"/>
</clipPath>
</defs>
</svg>
