<svg width="20" height="20" viewBox="0 0 20 20" fill="none" xmlns="http://www.w3.org/2000/svg">
<g clip-path="url(#clip0_34_3917)">
<path d="M11.7674 8.73371C11.6111 8.57748 11.3992 8.48972 11.1782 8.48972C10.9572 8.48972 10.7453 8.57748 10.5891 8.73371L9.99989 9.32204C9.84614 9.48123 9.66223 9.6082 9.45889 9.69555C9.25555 9.78289 9.03685 9.82887 8.81555 9.83079C8.59425 9.83272 8.37479 9.79055 8.16996 9.70675C7.96514 9.62294 7.77905 9.49919 7.62256 9.3427C7.46607 9.18621 7.34232 9.00013 7.25852 8.7953C7.17471 8.59047 7.13254 8.37101 7.13447 8.14971C7.13639 7.92841 7.18237 7.70971 7.26972 7.50637C7.35706 7.30303 7.48403 7.11912 7.64322 6.96538L12.3349 2.27204C13.4457 2.0194 14.6078 2.12338 15.6561 2.56919C16.7044 3.015 17.5854 3.77996 18.174 4.75529C18.7625 5.73061 19.0286 6.86667 18.9343 8.0019C18.8401 9.13714 18.3904 10.2138 17.6491 11.0787L15.8924 12.8579L11.7674 8.73288V8.73371ZM2.63405 3.72371C3.49635 2.86152 4.62423 2.31536 5.83535 2.17352C7.04647 2.03167 8.27003 2.30244 9.30822 2.94204L6.46405 5.78704C5.84805 6.40182 5.49691 7.23313 5.48567 8.10334C5.47442 8.97356 5.80396 9.81367 6.40387 10.4442C7.00378 11.0746 7.82648 11.4455 8.69618 11.4775C9.56588 11.5095 10.4136 11.2001 11.0582 10.6154L11.1782 10.5012L14.7141 14.0362L11.1782 17.572C10.8657 17.8845 10.4418 18.06 9.99989 18.06C9.55795 18.06 9.1341 17.8845 8.82155 17.572L2.63322 11.3837C1.6175 10.3679 1.04687 8.99022 1.04688 7.55371C1.04687 6.1172 1.6175 4.73952 2.63322 3.72371H2.63405Z" fill="#515869"/>
</g>
<defs>
<clipPath id="clip0_34_3917">
<rect width="20" height="20" fill="white"/>
</clipPath>
</defs>
</svg>
