<svg width="14" height="14" viewBox="0 0 14 14" fill="none" xmlns="http://www.w3.org/2000/svg">
<path d="M5.63571 0.473314C6.53499 0.284736 7.46357 0.284282 8.36304 0.47198C8.42296 0.867505 8.57125 1.24444 8.79689 1.57477C9.02253 1.90509 9.31972 2.18032 9.66637 2.37998C10.0127 2.58033 10.3998 2.70002 10.7988 2.73015C11.1978 2.76027 11.5985 2.70006 11.971 2.55398C12.5832 3.23935 13.047 4.04401 13.333 4.91731C13.0206 5.16703 12.7685 5.48395 12.5953 5.84451C12.4222 6.20507 12.3326 6.60001 12.333 6.99998C12.333 7.84265 12.7237 8.59398 13.3344 9.08265C13.0466 9.95523 12.5823 10.7592 11.9704 11.4446C11.5979 11.2987 11.1974 11.2385 10.7985 11.2686C10.3996 11.2988 10.0127 11.4184 9.66637 11.6186C9.32001 11.8182 9.02305 12.0933 8.79753 12.4234C8.57202 12.7535 8.42374 13.1301 8.36371 13.5253C7.46451 13.7143 6.53593 13.7152 5.63637 13.528C5.57674 13.1321 5.42858 12.7548 5.20292 12.4241C4.97726 12.0934 4.67993 11.8178 4.33304 11.618C3.98662 11.4177 3.59951 11.2982 3.2005 11.2682C2.80149 11.2381 2.40085 11.2985 2.02837 11.4446C1.4161 10.7591 0.952376 9.95419 0.666372 9.08065C0.978634 8.83107 1.23068 8.51437 1.4038 8.15405C1.57691 7.79374 1.66666 7.39906 1.66637 6.99931C1.6667 6.59923 1.57684 6.20423 1.40348 5.84366C1.23012 5.48309 0.977721 5.16623 0.665039 4.91665C0.952818 4.04406 1.41712 3.24005 2.02904 2.55465C2.40147 2.70062 2.80202 2.76078 3.2009 2.73065C3.59979 2.70053 3.98675 2.5809 4.33304 2.38065C4.6794 2.18105 4.97636 1.906 5.20188 1.57592C5.42739 1.24584 5.57567 0.869208 5.63571 0.47398V0.473314ZM6.99971 8.99998C7.53014 8.99998 8.03885 8.78927 8.41392 8.41419C8.78899 8.03912 8.99971 7.53041 8.99971 6.99998C8.99971 6.46955 8.78899 5.96084 8.41392 5.58577C8.03885 5.21069 7.53014 4.99998 6.99971 4.99998C6.46927 4.99998 5.96056 5.21069 5.58549 5.58577C5.21042 5.96084 4.99971 6.46955 4.99971 6.99998C4.99971 7.53041 5.21042 8.03912 5.58549 8.41419C5.96056 8.78927 6.46927 8.99998 6.99971 8.99998V8.99998Z" fill="#028C96"/>
</svg>
