<svg width="20" height="20" viewBox="0 0 20 20" fill="none" xmlns="http://www.w3.org/2000/svg">
<g clip-path="url(#clip0_1_143)">
<path d="M8.295 1.84128C9.41911 1.60555 10.5798 1.60499 11.7042 1.83961C11.7791 2.33402 11.9644 2.80518 12.2465 3.21809C12.5285 3.631 12.9 3.97503 13.3333 4.22461C13.7663 4.47505 14.2502 4.62466 14.7489 4.66232C15.2477 4.69997 15.7485 4.62471 16.2142 4.44211C16.9794 5.29883 17.5591 6.30464 17.9167 7.39628C17.5261 7.70843 17.2109 8.10457 16.9945 8.55527C16.7781 9.00597 16.6661 9.49965 16.6667 9.99961C16.6667 11.0529 17.155 11.9921 17.9183 12.6029C17.5586 13.6937 16.9782 14.6987 16.2133 15.5554C15.7478 15.373 15.2471 15.2978 14.7485 15.3354C14.2499 15.3731 13.7662 15.5226 13.3333 15.7729C12.9004 16.0224 12.5292 16.3663 12.2473 16.7789C11.9654 17.1915 11.78 17.6622 11.705 18.1563C10.581 18.3925 9.42028 18.3937 8.29583 18.1596C8.22129 17.6648 8.03609 17.1931 7.75402 16.7797C7.47195 16.3664 7.10027 16.0219 6.66666 15.7721C6.23363 15.5218 5.74975 15.3723 5.25099 15.3348C4.75223 15.2973 4.25143 15.3727 3.78583 15.5554C3.0205 14.6985 2.44084 13.6924 2.08333 12.6004C2.47366 12.2885 2.78871 11.8926 3.00511 11.4422C3.22151 10.9918 3.33369 10.4985 3.33333 9.99878C3.33374 9.49868 3.22142 9.00492 3.00472 8.55421C2.78802 8.10349 2.47252 7.70743 2.08167 7.39544C2.44139 6.30471 3.02176 5.29969 3.78667 4.44294C4.25221 4.62541 4.75289 4.70061 5.25149 4.66295C5.7501 4.6253 6.23381 4.47576 6.66666 4.22544C7.09962 3.97594 7.47082 3.63213 7.75271 3.21953C8.03461 2.80693 8.21996 2.33614 8.295 1.84211V1.84128ZM10 12.4996C10.663 12.4996 11.2989 12.2362 11.7678 11.7674C12.2366 11.2985 12.5 10.6627 12.5 9.99961C12.5 9.33657 12.2366 8.70068 11.7678 8.23184C11.2989 7.763 10.663 7.49961 10 7.49961C9.33696 7.49961 8.70107 7.763 8.23223 8.23184C7.76339 8.70068 7.5 9.33657 7.5 9.99961C7.5 10.6627 7.76339 11.2985 8.23223 11.7674C8.70107 12.2362 9.33696 12.4996 10 12.4996Z" fill="white"/>
</g>
<defs>
<clipPath id="clip0_1_143">
<rect width="20" height="20" fill="white"/>
</clipPath>
</defs>
</svg>
