<svg width="20" height="20" viewBox="0 0 20 20" fill="none" xmlns="http://www.w3.org/2000/svg">
<circle cx="10" cy="10" r="10" fill="#A10035"/>
<g clip-path="url(#clip0_454_4)">
<path d="M12.9154 14.1673H7.08203C6.75051 14.1673 6.43257 14.0356 6.19815 13.8012C5.96373 13.5668 5.83203 13.2488 5.83203 12.9173V6.25065C5.83203 6.14014 5.87593 6.03416 5.95407 5.95602C6.03221 5.87788 6.13819 5.83398 6.2487 5.83398H12.082C12.1925 5.83398 12.2985 5.87788 12.3767 5.95602C12.4548 6.03416 12.4987 6.14014 12.4987 6.25065V11.2507H14.1654V12.9173C14.1654 13.2488 14.0337 13.5668 13.7992 13.8012C13.5648 14.0356 13.2469 14.1673 12.9154 14.1673ZM12.4987 12.084V12.9173C12.4987 13.0278 12.5426 13.1338 12.6207 13.2119C12.6989 13.2901 12.8049 13.334 12.9154 13.334C13.0259 13.334 13.1319 13.2901 13.21 13.2119C13.2881 13.1338 13.332 13.0278 13.332 12.9173V12.084H12.4987ZM7.4987 7.91732V8.75065H10.832V7.91732H7.4987ZM7.4987 9.58398V10.4173H10.832V9.58398H7.4987ZM7.4987 11.2507V12.084H9.58203V11.2507H7.4987Z" fill="white"/>
</g>
<defs>
<clipPath id="clip0_454_4">
<rect width="10" height="10" fill="white" transform="translate(5 5)"/>
</clipPath>
</defs>
</svg>
