<svg width="18" height="18" viewBox="0 0 18 18" fill="none" xmlns="http://www.w3.org/2000/svg">
<g clip-path="url(#clip0_34_3950)">
<path d="M16.6217 4.24219C16.0491 4.49546 15.4419 4.66179 14.8202 4.73569C15.4755 4.34376 15.966 3.72695 16.2002 3.00019C15.5852 3.36619 14.911 3.62269 14.2082 3.76144C13.7362 3.25637 13.1105 2.92141 12.4284 2.80863C11.7464 2.69584 11.0462 2.81156 10.4367 3.13778C9.82717 3.464 9.34251 3.98245 9.05806 4.61253C8.7736 5.24262 8.70528 5.94902 8.86372 6.62194C7.61655 6.55943 6.39647 6.23533 5.28269 5.67069C4.1689 5.10604 3.18632 4.31347 2.39872 3.34444C2.11994 3.82328 1.97344 4.36761 1.97422 4.92169C1.97422 6.00919 2.52772 6.96994 3.36922 7.53244C2.87123 7.51676 2.3842 7.38227 1.94872 7.14019V7.17919C1.94887 7.90346 2.1995 8.6054 2.65811 9.16598C3.11672 9.72657 3.75508 10.1113 4.46497 10.2549C4.00268 10.3802 3.51795 10.3987 3.04747 10.3089C3.24762 10.9324 3.63773 11.4776 4.16317 11.8683C4.68861 12.259 5.32307 12.4755 5.97772 12.4877C5.32708 12.9987 4.58211 13.3764 3.78538 13.5993C2.98866 13.8222 2.15582 13.8859 1.33447 13.7867C2.76825 14.7088 4.4373 15.1983 6.14197 15.1967C11.9117 15.1967 15.067 10.4169 15.067 6.27169C15.067 6.13669 15.0632 6.00019 15.0572 5.86669C15.6714 5.42281 16.2014 4.87295 16.6225 4.24294L16.6217 4.24219Z" fill="#515869"/>
</g>
<defs>
<clipPath id="clip0_34_3950">
<rect width="18" height="18" fill="white"/>
</clipPath>
</defs>
</svg>
