<svg width="68" height="68" viewBox="0 0 68 68" fill="none" xmlns="http://www.w3.org/2000/svg">
<g clip-path="url(#clip0_124_606)">
<path d="M34.0002 35.6602L46.022 47.6792L42.0129 51.6883L36.8335 46.509V62.3332H31.1669V46.5033L25.9875 51.6883L21.9784 47.6792L34.0002 35.6602ZM34.0002 5.6665C38.865 5.66674 43.56 7.45466 47.1927 10.6903C50.8254 13.926 53.1424 18.3838 53.7032 23.2162C57.2286 24.1776 60.3041 26.3473 62.3921 29.3462C64.4801 32.345 65.4478 35.9823 65.1261 39.6223C64.8044 43.2623 63.2138 46.6734 60.6323 49.2596C58.0507 51.8459 54.6424 53.4426 51.003 53.7708V48.0645C52.3068 47.8783 53.5605 47.4342 54.6908 46.7583C55.8212 46.0823 56.8055 45.1879 57.5865 44.1273C58.3674 43.0668 58.9292 41.8613 59.2392 40.5812C59.5491 39.3012 59.601 37.9722 59.3917 36.6719C59.1825 35.3715 58.7163 34.1259 58.0204 33.0077C57.3245 31.8896 56.4128 30.9212 55.3386 30.1592C54.2644 29.3971 53.0491 28.8567 51.7638 28.5695C50.4785 28.2823 49.1488 28.2539 47.8524 28.4862C48.2961 26.4203 48.2721 24.2814 47.7821 22.2261C47.2922 20.1707 46.3487 18.251 45.0207 16.6075C43.6928 14.964 42.014 13.6384 40.1074 12.7277C38.2007 11.8171 36.1145 11.3444 34.0016 11.3444C31.8887 11.3444 29.8025 11.8171 27.8958 12.7277C25.9892 13.6384 24.3105 14.964 22.9825 16.6075C21.6545 18.251 20.711 20.1707 20.2211 22.2261C19.7311 24.2814 19.7071 26.4203 20.1509 28.4862C17.5659 28.0007 14.8939 28.5621 12.7228 30.0467C10.5517 31.5313 9.05929 33.8175 8.57386 36.4025C8.08842 38.9875 8.64975 41.6594 10.1343 43.8305C11.6189 46.0016 13.9052 47.4941 16.4902 47.9795L17.0002 48.0645V53.7708C13.3606 53.4431 9.952 51.8467 7.37007 49.2607C4.78813 46.6747 3.19711 43.2636 2.8751 39.6235C2.55308 35.9834 3.52055 32.346 5.6084 29.3469C7.69625 26.3478 10.7717 24.1778 14.2972 23.2162C14.8574 18.3836 17.1742 13.9254 20.807 10.6896C24.4398 7.45383 29.1352 5.66612 34.0002 5.6665Z" fill="black"/>
</g>
<defs>
<clipPath id="clip0_124_606">
<rect width="68" height="68" fill="white"/>
</clipPath>
</defs>
</svg>
