<svg width="16" height="16" viewBox="0 0 16 16" fill="none" xmlns="http://www.w3.org/2000/svg">
<g clip-path="url(#clip0_233_1508)">
<path d="M9.33464 9.50068V14.666H2.66797C2.66776 13.8519 2.85392 13.0486 3.21217 12.3176C3.57042 11.5866 4.09126 10.9473 4.73478 10.4487C5.3783 9.95011 6.12742 9.60544 6.92474 9.44111C7.72206 9.27679 8.54641 9.29716 9.33464 9.50068V9.50068ZM8.0013 8.66602C5.7913 8.66602 4.0013 6.87602 4.0013 4.66602C4.0013 2.45602 5.7913 0.666016 8.0013 0.666016C10.2113 0.666016 12.0013 2.45602 12.0013 4.66602C12.0013 6.87602 10.2113 8.66602 8.0013 8.66602ZM12.0013 11.3327V9.33268H13.3346V11.3327H15.3346V12.666H13.3346V14.666H12.0013V12.666H10.0013V11.3327H12.0013Z" fill="#515869"/>
</g>
<defs>
<clipPath id="clip0_233_1508">
<rect width="16" height="16" fill="white"/>
</clipPath>
</defs>
</svg>
