<svg width="16" height="16" viewBox="0 0 16 16" fill="none" xmlns="http://www.w3.org/2000/svg">
<g clip-path="url(#clip0_15_653)">
<path d="M9.33335 9.50166V14.667H2.66669C2.66648 13.8529 2.85263 13.0496 3.21089 12.3186C3.56914 11.5876 4.08998 10.9483 4.7335 10.4497C5.37702 9.95108 6.12614 9.60641 6.92346 9.44209C7.72077 9.27776 8.54513 9.29814 9.33335 9.50166ZM8.00002 8.66699C5.79002 8.66699 4.00002 6.87699 4.00002 4.66699C4.00002 2.45699 5.79002 0.666992 8.00002 0.666992C10.21 0.666992 12 2.45699 12 4.66699C12 6.87699 10.21 8.66699 8.00002 8.66699ZM12 11.3337V9.33366H13.3334V11.3337H15.3334V12.667H13.3334V14.667H12V12.667H10V11.3337H12Z" fill="white"/>
</g>
<defs>
<clipPath id="clip0_15_653">
<rect width="16" height="16" fill="white"/>
</clipPath>
</defs>
</svg>
